<svg xmlns="http://www.w3.org/2000/svg" xmlns:xlink="http://www.w3.org/1999/xlink" version="1.1" width="256" height="256" viewBox="0 0 256 256" xml:space="preserve">

<defs>
</defs>
<g style="stroke: none; stroke-width: 0; stroke-dasharray: none; stroke-linecap: butt; stroke-linejoin: miter; stroke-miterlimit: 10; fill: none; fill-rule: nonzero; opacity: 1;" transform="translate(1.4065934065934016 1.4065934065934016) scale(2.81 2.81)" >
	<path d="M 44.91 21.106 c -0.152 0 -0.306 -0.035 -0.451 -0.108 c -0.493 -0.25 -0.689 -0.852 -0.44 -1.344 c 1.653 -3.262 1.652 -6.167 -0.003 -8.878 c -1.72 -2.831 -1.704 -5.691 0.047 -8.502 c 0.292 -0.468 0.909 -0.612 1.377 -0.32 s 0.612 0.909 0.32 1.377 c -1.356 2.177 -1.368 4.212 -0.036 6.404 c 2.017 3.304 2.043 6.946 0.08 10.823 C 45.626 20.906 45.275 21.106 44.91 21.106 z" style="stroke: none; stroke-width: 1; stroke-dasharray: none; stroke-linecap: butt; stroke-linejoin: miter; stroke-miterlimit: 10; fill: rgb(255,169,65); fill-rule: nonzero; opacity: 1;" transform=" matrix(1 0 0 1 0 0) " stroke-linecap="round" />
	<path d="M 53.614 21.106 c -0.151 0 -0.306 -0.035 -0.451 -0.108 c -0.492 -0.25 -0.689 -0.851 -0.44 -1.344 c 1.306 -2.577 1.307 -4.866 0.005 -7 c -1.433 -2.359 -1.419 -4.74 0.039 -7.08 c 0.292 -0.468 0.907 -0.611 1.378 -0.32 c 0.469 0.292 0.611 0.909 0.319 1.377 c -1.056 1.693 -1.064 3.276 -0.028 4.982 c 1.668 2.733 1.693 5.743 0.071 8.943 C 54.331 20.906 53.979 21.106 53.614 21.106 z" style="stroke: none; stroke-width: 1; stroke-dasharray: none; stroke-linecap: butt; stroke-linejoin: miter; stroke-miterlimit: 10; fill: rgb(255,169,65); fill-rule: nonzero; opacity: 1;" transform=" matrix(1 0 0 1 0 0) " stroke-linecap="round" />
	<path d="M 36.239 21.106 c -0.152 0 -0.306 -0.035 -0.451 -0.108 c -0.493 -0.25 -0.689 -0.852 -0.44 -1.344 c 1.306 -2.576 1.307 -4.866 0.005 -6.999 c -1.433 -2.358 -1.419 -4.74 0.039 -7.08 c 0.292 -0.468 0.909 -0.611 1.377 -0.32 c 0.469 0.292 0.612 0.909 0.32 1.377 c -1.055 1.693 -1.064 3.276 -0.028 4.982 c 1.668 2.733 1.693 5.743 0.071 8.943 C 36.956 20.906 36.604 21.106 36.239 21.106 z" style="stroke: none; stroke-width: 1; stroke-dasharray: none; stroke-linecap: butt; stroke-linejoin: miter; stroke-miterlimit: 10; fill: rgb(255,169,65); fill-rule: nonzero; opacity: 1;" transform=" matrix(1 0 0 1 0 0) " stroke-linecap="round" />
	<polygon points="58.36,73.61 31.64,73.61 27.71,78.74 62.28,78.74 " style="stroke: none; stroke-width: 1; stroke-dasharray: none; stroke-linecap: butt; stroke-linejoin: miter; stroke-miterlimit: 10; fill: rgb(216,216,216); fill-rule: nonzero; opacity: 1;" transform="  matrix(1 0 0 1 0 0) "/>
	<path d="M 51.632 65.536 l 15.566 22.231 c 1.658 2.368 4.923 2.944 7.291 1.286 h 0 c 2.368 -1.658 2.944 -4.923 1.286 -7.291 L 61.609 61.53 L 51.632 65.536 z" style="stroke: none; stroke-width: 1; stroke-dasharray: none; stroke-linecap: butt; stroke-linejoin: miter; stroke-miterlimit: 10; fill: rgb(183,183,183); fill-rule: nonzero; opacity: 1;" transform=" matrix(1 0 0 1 0 0) " stroke-linecap="round" />
	<path d="M 28.477 61.53 L 14.311 81.762 c -1.658 2.368 -1.083 5.633 1.286 7.291 h 0 c 2.368 1.658 5.633 1.083 7.291 -1.286 l 15.566 -22.231 L 28.477 61.53 z" style="stroke: none; stroke-width: 1; stroke-dasharray: none; stroke-linecap: butt; stroke-linejoin: miter; stroke-miterlimit: 10; fill: rgb(183,183,183); fill-rule: nonzero; opacity: 1;" transform=" matrix(1 0 0 1 0 0) " stroke-linecap="round" />
	<path d="M 14.01 40.945 H 2.528 C 1.132 40.945 0 42.076 0 43.472 v 0 C 0 44.868 1.132 46 2.528 46 h 12.977 L 14.01 40.945 z" style="stroke: none; stroke-width: 1; stroke-dasharray: none; stroke-linecap: butt; stroke-linejoin: miter; stroke-miterlimit: 10; fill: rgb(183,183,183); fill-rule: nonzero; opacity: 1;" transform=" matrix(1 0 0 1 0 0) " stroke-linecap="round" />
	<path d="M 75.99 40.945 h 11.483 c 1.396 0 2.528 1.132 2.528 2.528 v 0 C 90 44.868 88.868 46 87.472 46 H 74.495 L 75.99 40.945 z" style="stroke: none; stroke-width: 1; stroke-dasharray: none; stroke-linecap: butt; stroke-linejoin: miter; stroke-miterlimit: 10; fill: rgb(183,183,183); fill-rule: nonzero; opacity: 1;" transform=" matrix(1 0 0 1 0 0) " stroke-linecap="round" />
	<path d="M 76.722 34.544 c 0 17.496 -14.183 31.679 -31.679 31.679 S 13.363 52.04 13.363 34.544 H 76.722 z" style="stroke: none; stroke-width: 1; stroke-dasharray: none; stroke-linecap: butt; stroke-linejoin: miter; stroke-miterlimit: 10; fill: rgb(247,89,89); fill-rule: nonzero; opacity: 1;" transform=" matrix(1 0 0 1 0 0) " stroke-linecap="round" />
	<path d="M 78.301 35.567 H 11.785 c -2.18 0 -3.947 -1.767 -3.947 -3.947 v -1.097 c 0 -2.18 1.767 -3.947 3.947 -3.947 h 66.516 c 2.18 0 3.947 1.767 3.947 3.947 v 1.097 C 82.248 33.8 80.481 35.567 78.301 35.567 z" style="stroke: none; stroke-width: 1; stroke-dasharray: none; stroke-linecap: butt; stroke-linejoin: miter; stroke-miterlimit: 10; fill: rgb(216,216,216); fill-rule: nonzero; opacity: 1;" transform=" matrix(1 0 0 1 0 0) " stroke-linecap="round" />
	<path d="M 38.454 57.891 c -0.093 0 -0.188 -0.013 -0.282 -0.04 c -7.788 -2.227 -14.028 -8.128 -16.692 -15.785 c -0.186 -0.533 0.096 -1.117 0.63 -1.302 c 0.535 -0.188 1.116 0.096 1.302 0.63 c 2.445 7.029 8.174 12.446 15.322 14.49 c 0.543 0.155 0.857 0.722 0.702 1.264 C 39.309 57.598 38.899 57.891 38.454 57.891 z" style="stroke: none; stroke-width: 1; stroke-dasharray: none; stroke-linecap: butt; stroke-linejoin: miter; stroke-miterlimit: 10; fill: rgb(251,153,153); fill-rule: nonzero; opacity: 1;" transform=" matrix(1 0 0 1 0 0) " stroke-linecap="round" />
</g>
</svg>